<svg xmlns="http://www.w3.org/2000/svg" width="20" height="20" viewBox="0 0 20 20">
  <g id="Gruppe_259" data-name="Gruppe 259" transform="translate(0 0)">
    <path id="Pfad_18" data-name="Pfad 18" d="M46.167,33.667a4.179,4.179,0,0,1,4.167,4.167v8.333a4.179,4.179,0,0,1-4.167,4.167H37.833a4.179,4.179,0,0,1-4.167-4.167V37.833a4.179,4.179,0,0,1,4.167-4.167h8.333m0-1.667H37.833A5.851,5.851,0,0,0,32,37.833v8.333A5.851,5.851,0,0,0,37.833,52h8.333A5.851,5.851,0,0,0,52,46.167V37.833A5.851,5.851,0,0,0,46.167,32Z" transform="translate(-32 -32)" fill="black"/>
    <path id="Pfad_19" data-name="Pfad 19" d="M154.392,109.164a1.244,1.244,0,1,1,.883-.364A1.247,1.247,0,0,1,154.392,109.164Zm-5.4.831a3.326,3.326,0,1,1-3.326,3.326A3.326,3.326,0,0,1,148.988,110m0-1.663a4.988,4.988,0,1,0,4.988,4.988A4.988,4.988,0,0,0,148.988,108.333Z" transform="translate(-139.354 -103.326)" fill="black"/>
  </g>
</svg>
