<svg xmlns="http://www.w3.org/2000/svg" width="21.964" height="21.92" viewBox="0 0 21.964 21.92">
  <path id="call-outline" d="M67.369,63.684a17.643,17.643,0,0,0-3.509-2.344c-1.168-.588-1.264-.637-2.183.046-.612.455-1.02.862-1.736.709A9.3,9.3,0,0,1,56.3,59.72a9.61,9.61,0,0,1-2.429-3.677c-.153-.714.26-1.117.711-1.731.636-.865.587-1.01.044-2.178a15.977,15.977,0,0,0-2.351-3.5c-.826-.816-.826-.672-1.358-.45a7.7,7.7,0,0,0-1.242.662,3.72,3.72,0,0,0-1.495,1.573c-.3.638-.433,2.134,1.109,4.934a24.443,24.443,0,0,0,4.862,6.466,26.6,26.6,0,0,0,6.477,4.845c3.113,1.744,4.308,1.4,4.947,1.106a3.708,3.708,0,0,0,1.578-1.49,7.649,7.649,0,0,0,.663-1.24C68.042,64.509,68.186,64.509,67.369,63.684Z" transform="translate(-46.978 -47.063)" fill="none" stroke="black" stroke-miterlimit="10" stroke-width="2"/>
</svg>
