<svg xmlns="http://www.w3.org/2000/svg" width="20" height="20" viewBox="0 0 20 20">
  <path id="logo-whatsapp" d="M49.086,34.905a9.94,9.94,0,0,0-15.673,11.96L32,52l5.279-1.378a9.983,9.983,0,0,0,4.759,1.205h0A9.949,9.949,0,0,0,52,41.916,9.829,9.829,0,0,0,49.086,34.905ZM42.042,50.154h0a8.292,8.292,0,0,1-4.212-1.148l-.3-.179-3.133.818.836-3.04-.2-.312a8.284,8.284,0,1,1,7.012,3.861Zm4.54-6.169c-.249-.124-1.473-.723-1.7-.806s-.394-.124-.56.124-.643.8-.788.971-.29.186-.539.062a6.806,6.806,0,0,1-2-1.229,7.467,7.467,0,0,1-1.384-1.715c-.145-.248-.016-.382.109-.505s.249-.289.373-.434a1.675,1.675,0,0,0,.249-.413.455.455,0,0,0-.021-.433c-.062-.124-.56-1.343-.767-1.839s-.407-.417-.56-.425-.312-.009-.477-.009a.917.917,0,0,0-.663.31,2.775,2.775,0,0,0-.871,2.066A4.818,4.818,0,0,0,38,42.27a11.062,11.062,0,0,0,4.25,3.739,14.424,14.424,0,0,0,1.419.521,3.426,3.426,0,0,0,1.567.1,2.561,2.561,0,0,0,1.68-1.178,2.067,2.067,0,0,0,.145-1.177C47,44.17,46.831,44.108,46.582,43.984Z" transform="translate(-32 -31.999)" fill="black" fill-rule="evenodd"/>
</svg>
