<svg xmlns="http://www.w3.org/2000/svg" width="54.072" height="54.061" viewBox="0 0 54.072 54.061">
  <g id="build-outline_1_" data-name="build-outline (1)" transform="translate(-45.738 -46.01)">
    <path id="Pfad_36" data-name="Pfad 36" d="M89.363,65.08a3.856,3.856,0,0,1-5.436,0l-3.192-3.192a3.855,3.855,0,0,1,0-5.437l7.225-7.229a.12.12,0,0,0-.036-.2,13.592,13.592,0,0,0-14.55,2.832c-3.674,3.646-3.883,9.13-2.537,13.917a3.836,3.836,0,0,1-1.088,3.854L49.733,87.906A5.787,5.787,0,1,0,57.9,96.076L76.387,76.013a3.836,3.836,0,0,1,3.8-1.1c4.75,1.272,10.156,1.033,13.782-2.546,3.9-3.844,4.745-10.639,2.853-14.528a.12.12,0,0,0-.192-.031Z" fill="none" stroke="black" stroke-linecap="round" stroke-miterlimit="10" stroke-width="4"/>
    <circle id="Ellipse_16" data-name="Ellipse 16" cx="1.956" cy="1.956" r="1.956" transform="translate(51.723 90.175)" fill="black"/>
  </g>
</svg>
