<svg xmlns="http://www.w3.org/2000/svg" width="300.845" height="197.501" viewBox="0 0 300.845 197.501">
  <g id="SvgjsG63664" opacity="0.1">
    <path id="Pfad_29" data-name="Pfad 29" d="M1137.34,2291.427a4.1,4.1,0,0,1-2.749-1.062,167.247,167.247,0,0,1-23.053-27.677c-10.558-15.681-23.116-40.109-23.116-67.349,0-27.3,12.558-51.73,23.116-67.349a167.259,167.259,0,0,1,23.053-27.677,4.045,4.045,0,0,1,5.5,0,167.256,167.256,0,0,1,23.054,27.677c10.558,15.681,23.116,40.11,23.116,67.349,0,27.3-12.557,51.73-23.116,67.349a167.244,167.244,0,0,1-23.054,27.677A4.1,4.1,0,0,1,1137.34,2291.427Zm0-182.492c-9.559,9.871-40.734,45.17-40.734,86.341,0,41.3,31.175,76.533,40.734,86.342,9.559-9.871,40.734-45.17,40.734-86.342C1178.074,2153.981,1146.9,2118.744,1137.34,2108.936Z" transform="translate(-986.907 -2099.236)" fill="#ffe9ff"/>
    <path id="Pfad_30" data-name="Pfad 30" d="M1436.894,2477.673a4.089,4.089,0,0,1-3.874-2.812,167.9,167.9,0,0,1-6.435-35.424c-1.437-18.805-.375-46.232,13.058-70.035s36.361-38.86,53.229-47.294a171.527,171.527,0,0,1,33.674-12.807,4.083,4.083,0,0,1,4.811,2.686,167.9,167.9,0,0,1,6.435,35.424c1.437,18.805.375,46.232-13.057,70.036-13.432,23.741-36.361,38.86-53.229,47.294a171.556,171.556,0,0,1-33.675,12.808A4.82,4.82,0,0,1,1436.894,2477.673Zm87.779-159.438c-13.182,3.874-57.665,19.243-77.97,55.166-20.242,35.862-10.5,81.969-7,95.214,13.182-3.874,57.665-19.243,77.97-55.167S1528.172,2331.48,1524.673,2318.235Z" transform="translate(-1286.686 -2285.482)" fill="#ffe9ff"/>
    <path id="Pfad_31" data-name="Pfad 31" d="M1529.423,3007.633a161.2,161.2,0,0,1-40.8-5.185,4.113,4.113,0,0,1-2.874-4.686,158.593,158.593,0,0,1,11-31.8c7.435-15.994,20.867-37.86,42.671-51.043,15.682-9.5,35.049-14.307,57.478-14.307a161.208,161.208,0,0,1,40.8,5.186,4.113,4.113,0,0,1,2.874,4.686,158.62,158.62,0,0,1-11,31.8c-7.435,15.994-20.867,37.86-42.671,51.043-15.682,9.5-35.049,14.307-57.478,14.307Zm-34.8-12.058a159.494,159.494,0,0,0,34.8,3.936c20.929,0,38.86-4.436,53.292-13.12,32.613-19.742,45.67-61.1,49.044-73.721a159.476,159.476,0,0,0-34.8-3.936c-20.929,0-38.86,4.436-53.292,13.12C1511.055,2941.6,1498,2982.892,1494.624,2995.575Z" transform="translate(-1339.788 -2810.131)" fill="#ffe9ff"/>
    <path id="Pfad_32" data-name="Pfad 32" d="M725.694,2477.673a4.8,4.8,0,0,1-.937-.125,166.862,166.862,0,0,1-33.674-12.807c-16.868-8.434-39.8-23.553-53.229-47.294s-14.494-51.168-13.057-70.036a167.9,167.9,0,0,1,6.435-35.424,4.051,4.051,0,0,1,4.811-2.687,166.928,166.928,0,0,1,33.674,12.808c16.868,8.434,39.8,23.553,53.229,47.294s14.494,51.167,13.057,70.035a167.907,167.907,0,0,1-6.435,35.424A4.089,4.089,0,0,1,725.694,2477.673Zm-87.778-159.438c-3.5,13.245-13.245,59.352,7,95.213,20.3,35.924,64.787,51.293,77.97,55.166,3.5-13.245,13.245-59.352-7-95.213C695.58,2337.415,651.1,2322.108,637.915,2318.234Z" transform="translate(-574.974 -2285.482)" fill="#ffe9ff"/>
    <path id="Pfad_33" data-name="Pfad 33" d="M296.383,3007.633c-22.429,0-41.8-4.81-57.478-14.307-21.8-13.182-35.3-35.049-42.671-51.043a157.189,157.189,0,0,1-11-31.8,4,4,0,0,1,2.874-4.686,161.8,161.8,0,0,1,40.8-5.186c22.429,0,41.8,4.811,57.478,14.307,21.8,13.182,35.3,35.049,42.671,51.043a157.188,157.188,0,0,1,11,31.8,4,4,0,0,1-2.874,4.686,161.8,161.8,0,0,1-40.8,5.185Zm-102.335-95.026c3.374,12.683,16.494,54.042,49.044,73.721,14.432,8.747,32.362,13.12,53.292,13.12a159.479,159.479,0,0,0,34.8-3.936c-3.374-12.683-16.494-54.042-49.044-73.721-14.432-8.747-32.362-13.12-53.292-13.12A162.99,162.99,0,0,0,194.048,2912.607Z" transform="translate(-185.152 -2810.131)" fill="#ffe9ff"/>
  </g>
</svg>
