<svg xmlns="http://www.w3.org/2000/svg" width="387.457" height="250" viewBox="0 0 387.457 250">
  <g id="SvgjsG270296" transform="translate(0 0)">
    <g id="SvgjsG63663" transform="translate(0 0)">
      <g id="SvgjsG63664" transform="translate(43.563)">
        <path id="Pfad_29" data-name="Pfad 29" d="M1137.34,2291.427a4.1,4.1,0,0,1-2.749-1.062,167.247,167.247,0,0,1-23.053-27.677c-10.558-15.681-23.116-40.109-23.116-67.349,0-27.3,12.558-51.73,23.116-67.349a167.259,167.259,0,0,1,23.053-27.677,4.045,4.045,0,0,1,5.5,0,167.256,167.256,0,0,1,23.054,27.677c10.558,15.681,23.116,40.11,23.116,67.349,0,27.3-12.557,51.73-23.116,67.349a167.244,167.244,0,0,1-23.054,27.677A4.1,4.1,0,0,1,1137.34,2291.427Zm0-182.492c-9.559,9.871-40.734,45.17-40.734,86.341,0,41.3,31.175,76.533,40.734,86.342,9.559-9.871,40.734-45.17,40.734-86.342C1178.074,2153.981,1146.9,2118.744,1137.34,2108.936Z" transform="translate(-986.907 -2099.236)" fill="#8c43cf"/>
        <path id="Pfad_30" data-name="Pfad 30" d="M1436.894,2477.673a4.089,4.089,0,0,1-3.874-2.812,167.9,167.9,0,0,1-6.435-35.424c-1.437-18.805-.375-46.232,13.058-70.035s36.361-38.86,53.229-47.294a171.527,171.527,0,0,1,33.674-12.807,4.083,4.083,0,0,1,4.811,2.686,167.9,167.9,0,0,1,6.435,35.424c1.437,18.805.375,46.232-13.057,70.036-13.432,23.741-36.361,38.86-53.229,47.294a171.556,171.556,0,0,1-33.675,12.808A4.82,4.82,0,0,1,1436.894,2477.673Zm87.779-159.438c-13.182,3.874-57.665,19.243-77.97,55.166-20.242,35.862-10.5,81.969-7,95.214,13.182-3.874,57.665-19.243,77.97-55.167S1528.172,2331.48,1524.673,2318.235Z" transform="translate(-1286.686 -2285.482)" fill="#8c43cf"/>
        <path id="Pfad_31" data-name="Pfad 31" d="M1529.423,3007.633a161.2,161.2,0,0,1-40.8-5.185,4.113,4.113,0,0,1-2.874-4.686,158.593,158.593,0,0,1,11-31.8c7.435-15.994,20.867-37.86,42.671-51.043,15.682-9.5,35.049-14.307,57.478-14.307a161.208,161.208,0,0,1,40.8,5.186,4.113,4.113,0,0,1,2.874,4.686,158.62,158.62,0,0,1-11,31.8c-7.435,15.994-20.867,37.86-42.671,51.043-15.682,9.5-35.049,14.307-57.478,14.307Zm-34.8-12.058a159.494,159.494,0,0,0,34.8,3.936c20.929,0,38.86-4.436,53.292-13.12,32.613-19.742,45.67-61.1,49.044-73.721a159.476,159.476,0,0,0-34.8-3.936c-20.929,0-38.86,4.436-53.292,13.12C1511.055,2941.6,1498,2982.892,1494.624,2995.575Z" transform="translate(-1339.788 -2810.131)" fill="#8c43cf"/>
        <path id="Pfad_32" data-name="Pfad 32" d="M725.694,2477.673a4.8,4.8,0,0,1-.937-.125,166.862,166.862,0,0,1-33.674-12.807c-16.868-8.434-39.8-23.553-53.229-47.294s-14.494-51.168-13.057-70.036a167.9,167.9,0,0,1,6.435-35.424,4.051,4.051,0,0,1,4.811-2.687,166.928,166.928,0,0,1,33.674,12.808c16.868,8.434,39.8,23.553,53.229,47.294s14.494,51.167,13.057,70.035a167.907,167.907,0,0,1-6.435,35.424A4.089,4.089,0,0,1,725.694,2477.673Zm-87.778-159.438c-3.5,13.245-13.245,59.352,7,95.213,20.3,35.924,64.787,51.293,77.97,55.166,3.5-13.245,13.245-59.352-7-95.213C695.58,2337.415,651.1,2322.108,637.915,2318.234Z" transform="translate(-574.974 -2285.482)" fill="#8c43cf"/>
        <path id="Pfad_33" data-name="Pfad 33" d="M296.383,3007.633c-22.429,0-41.8-4.81-57.478-14.307-21.8-13.182-35.3-35.049-42.671-51.043a157.189,157.189,0,0,1-11-31.8,4,4,0,0,1,2.874-4.686,161.8,161.8,0,0,1,40.8-5.186c22.429,0,41.8,4.811,57.478,14.307,21.8,13.182,35.3,35.049,42.671,51.043a157.188,157.188,0,0,1,11,31.8,4,4,0,0,1-2.874,4.686,161.8,161.8,0,0,1-40.8,5.185Zm-102.335-95.026c3.374,12.683,16.494,54.042,49.044,73.721,14.432,8.747,32.362,13.12,53.292,13.12a159.479,159.479,0,0,0,34.8-3.936c-3.374-12.683-16.494-54.042-49.044-73.721-14.432-8.747-32.362-13.12-53.292-13.12A162.99,162.99,0,0,0,194.048,2912.607Z" transform="translate(-185.152 -2810.131)" fill="#8c43cf"/>
      </g>
      <g id="SvgjsG63665" transform="translate(0 223.594)">
        <path id="Pfad_34" data-name="Pfad 34" d="M-1715.041-143.02a.37.37,0,0,0,.31.16c1.09-.05,2.088-.076,2.986-.076h8.168a.926.926,0,0,0,.495-.1.681.681,0,0,0,.227-.42l.495-3.144a.4.4,0,0,0-.176-.378,1.023,1.023,0,0,0-.419-.2c-.444-.067-.73.05-.847.353a14.114,14.114,0,0,1-.637,1.8,1.8,1.8,0,0,1-.7.807,2.822,2.822,0,0,1-1.325.286h-2.239a2.077,2.077,0,0,1-1.166-.21.96.96,0,0,1-.453-.521,5.415,5.415,0,0,1-.126-.815v-10.282a5.764,5.764,0,0,1,.117-1.009,1.087,1.087,0,0,1,.436-.647,1.744,1.744,0,0,1,1.065-.261,1.017,1.017,0,0,0,.461-.076c.092-.05.151-.2.168-.454a.66.66,0,0,0-.117-.387.375.375,0,0,0-.335-.16c-1.073.05-2.113.076-3.111.076-.88,0-1.87-.025-2.96-.076a.351.351,0,0,0-.31.16.661.661,0,0,0-.117.387.683.683,0,0,0,.126.437.536.536,0,0,0,.352.092h.151a1.746,1.746,0,0,1,1.065.261,1.088,1.088,0,0,1,.436.647,5.764,5.764,0,0,1,.117,1.009v9.912a5.764,5.764,0,0,1-.117,1.009,1.088,1.088,0,0,1-.436.647,1.746,1.746,0,0,1-1.065.261,1.028,1.028,0,0,0-.478.076q-.126.076-.151.454A.68.68,0,0,0-1715.041-143.02Zm19.331-.429a5.649,5.649,0,0,0,3.011.815,5.609,5.609,0,0,0,2.692-.74,6.084,6.084,0,0,0,2.222-2.119,5.885,5.885,0,0,0,.889-3.262,5.854,5.854,0,0,0-.738-2.833,5.717,5.717,0,0,0-2.055-2.144,5.644,5.644,0,0,0-3.011-.807,5.639,5.639,0,0,0-2.717.731,6.09,6.09,0,0,0-2.214,2.127,5.965,5.965,0,0,0-.872,3.253,5.826,5.826,0,0,0,.738,2.833A5.654,5.654,0,0,0-1695.71-143.449Zm5.485-1.555a2.622,2.622,0,0,1-2.474,1.446,2.644,2.644,0,0,1-2.466-1.387,7.047,7.047,0,0,1-.8-3.531,7.789,7.789,0,0,1,.771-3.716,2.622,2.622,0,0,1,2.491-1.429,2.653,2.653,0,0,1,2.449,1.362,6.735,6.735,0,0,1,.813,3.506A7.8,7.8,0,0,1-1690.225-145Zm10,1.6a2.831,2.831,0,0,0,2.1.891,6.041,6.041,0,0,0,1.5-.16,4.461,4.461,0,0,0,1.359-.639.307.307,0,0,0,.151-.219.282.282,0,0,0-.025-.126,1.973,1.973,0,0,0-.2-.361.32.32,0,0,0-.277-.135,1.648,1.648,0,0,0-.394.118,3.23,3.23,0,0,1-1.367.277,1.191,1.191,0,0,1-1.107-.546,2.584,2.584,0,0,1-.344-1.379v-7.583l2.793.076c.084,0,.151-.076.21-.235a1.465,1.465,0,0,0,.092-.513q0-.479-.327-.479h-.05l-2.91.177.176-2.842a.277.277,0,0,0-.176-.261.787.787,0,0,0-.352-.092.523.523,0,0,0-.545.328c-.218.631-.4,1.1-.545,1.412a2.555,2.555,0,0,1-.713.849,3.282,3.282,0,0,1-1.359.555.341.341,0,0,0-.26.193.776.776,0,0,0-.084.387.585.585,0,0,0,.092.311.3.3,0,0,0,.251.135l1.443-.05v7.339A3.576,3.576,0,0,0-1680.229-143.407Zm11.926-.252a3.585,3.585,0,0,0,2.692,1.026,4.776,4.776,0,0,0,1.677-.269,3.749,3.749,0,0,0,1.157-.622c.3-.235.688-.588,1.174-1.034h.05v1.4a2,2,0,0,0,.025.387c.017.076.084.118.193.118l4.009-.277c.285-.05.428-.193.428-.42q0-.479-.428-.479c-1.308,0-1.962-.488-1.962-1.471v-8.634q0-.479-.4-.479h-.075a2.768,2.768,0,0,0-.57.151,12.206,12.206,0,0,1-2.684.647.42.42,0,0,0-.3.168.475.475,0,0,0-.1.286c0,.219.05.353.151.412a.909.909,0,0,0,.444.084,1.455,1.455,0,0,1,.922.227.8.8,0,0,1,.31.521,8.324,8.324,0,0,1,.042.95v5.246a3.226,3.226,0,0,1-1.1,1.143,3.342,3.342,0,0,1-1.988.572,2.5,2.5,0,0,1-1.669-.605,2.18,2.18,0,0,1-.721-1.765v-7.558q0-.479-.4-.479h-.075a2.636,2.636,0,0,0-.57.151,12.173,12.173,0,0,1-2.692.647.4.4,0,0,0-.294.168.476.476,0,0,0-.1.286c0,.219.05.353.151.412a.888.888,0,0,0,.445.084,1.454,1.454,0,0,1,.922.227.8.8,0,0,1,.31.521,8.772,8.772,0,0,1,.034.95v4.615A3.707,3.707,0,0,0-1668.3-143.659Zm16.236.328a6.605,6.605,0,0,0,3.237.7,5.812,5.812,0,0,0,2.34-.462,3.928,3.928,0,0,0,1.644-1.3,3.144,3.144,0,0,0,.6-1.858,2.676,2.676,0,0,0-.436-1.606,3.085,3.085,0,0,0-1.183-.975,16.434,16.434,0,0,0-2.071-.79c-.856-.277-1.493-.5-1.887-.673a2.084,2.084,0,0,1-.9-.656,1.85,1.85,0,0,1-.3-1.11,1.353,1.353,0,0,1,.713-1.211,3.051,3.051,0,0,1,1.652-.437,2.792,2.792,0,0,1,1.476.37,1.294,1.294,0,0,1,.671,1.051.971.971,0,0,1-.168.563,2.112,2.112,0,0,1-.361.412c-.126.109-.193.177-.193.193,0,.084.1.2.31.353a1.157,1.157,0,0,0,.7.227,1.341,1.341,0,0,0,1.082-.479,1.666,1.666,0,0,0,.411-1.143,1.93,1.93,0,0,0-1.082-1.749,4.964,4.964,0,0,0-2.549-.622,6.29,6.29,0,0,0-2.181.37,3.9,3.9,0,0,0-1.677,1.127,2.611,2.611,0,0,0-.646,1.791,2.83,2.83,0,0,0,.545,1.824,3.516,3.516,0,0,0,1.317,1.051,15.241,15.241,0,0,0,2,.7c.662.2,1.182.37,1.552.521a2.573,2.573,0,0,1,.939.631,1.443,1.443,0,0,1,.369,1.017,1.73,1.73,0,0,1-.654,1.438,2.929,2.929,0,0,1-1.837.513,3.756,3.756,0,0,1-1.979-.437,1.353,1.353,0,0,1-.679-1.185,1.168,1.168,0,0,1,.285-.849,2.056,2.056,0,0,0,.285-.328c0-.084-.1-.193-.31-.345a1.183,1.183,0,0,0-.713-.227,1.534,1.534,0,0,0-1.132.446,1.657,1.657,0,0,0-.436,1.177A2.182,2.182,0,0,0-1652.067-143.331Zm12.982-4.834a.469.469,0,0,0,.411.261h5.451a.47.47,0,0,0,.411-.261,1,1,0,0,0,.159-.538,1,1,0,0,0-.159-.538.486.486,0,0,0-.411-.261h-5.451a.486.486,0,0,0-.411.261,1,1,0,0,0-.159.538A1,1,0,0,0-1639.085-148.165Zm10.928,5.145a.37.37,0,0,0,.31.16c1.1-.05,2.088-.076,2.986-.076h8.219a.907.907,0,0,0,.495-.1.682.682,0,0,0,.227-.42l.495-3.144a.4.4,0,0,0-.16-.378.991.991,0,0,0-.436-.2c-.445-.067-.73.05-.847.353a14.418,14.418,0,0,1-.629,1.8,1.821,1.821,0,0,1-.713.807,2.81,2.81,0,0,1-1.317.286h-2.29a2.1,2.1,0,0,1-1.174-.219.984.984,0,0,1-.444-.563,6.268,6.268,0,0,1-.126-.841v-4.716h4.5a.315.315,0,0,0,.277-.151.578.578,0,0,0,.1-.345.718.718,0,0,0-.1-.387.372.372,0,0,0-.277-.185h-4.5v-6.339h3.338a2.4,2.4,0,0,1,1.3.336,1.816,1.816,0,0,1,.7.942,9.96,9.96,0,0,1,.436,1.866.425.425,0,0,0,.252.336,1.153,1.153,0,0,0,.52.109.855.855,0,0,0,.453-.134.42.42,0,0,0,.226-.362l-.075-3.5c0-.4-.218-.6-.646-.6h-7.825c-.872,0-1.862-.025-2.96-.076a.351.351,0,0,0-.31.16.655.655,0,0,0-.109.387.684.684,0,0,0,.126.437.5.5,0,0,0,.344.092h.151a1.79,1.79,0,0,1,1.073.261,1.073,1.073,0,0,1,.428.647,5.762,5.762,0,0,1,.118,1.009v9.912a5.762,5.762,0,0,1-.118,1.009,1.073,1.073,0,0,1-.428.647,1.79,1.79,0,0,1-1.073.261,1.027,1.027,0,0,0-.478.076c-.076.05-.126.2-.143.454A.673.673,0,0,0-1628.157-143.02Zm17.033.008a.329.329,0,0,0,.285.151c.973-.05,1.837-.076,2.583-.076q1.17,0,2.617.076a.338.338,0,0,0,.3-.151.615.615,0,0,0,.1-.345q-.025-.3-.126-.378a.5.5,0,0,0-.3-.076h-.151a1.471,1.471,0,0,1-.923-.227.845.845,0,0,1-.319-.521,6.333,6.333,0,0,1-.05-.95v-5.935a3.164,3.164,0,0,1,1.124-1.16,3.353,3.353,0,0,1,1.962-.563,2.485,2.485,0,0,1,1.669.614,2.177,2.177,0,0,1,.721,1.757v5.288a6.367,6.367,0,0,1-.05.95.845.845,0,0,1-.319.521,1.471,1.471,0,0,1-.923.227.986.986,0,0,0-.436.067c-.076.034-.126.168-.142.387a.571.571,0,0,0,.117.345.34.34,0,0,0,.285.151q1.472-.076,2.591-.076c.78,0,1.652.025,2.608.076a.329.329,0,0,0,.285-.151.57.57,0,0,0,.117-.345.542.542,0,0,0-.126-.378.5.5,0,0,0-.3-.076h-.143a1.438,1.438,0,0,1-.922-.227.821.821,0,0,1-.327-.521,6.346,6.346,0,0,1-.05-.95v-5.313a3.673,3.673,0,0,0-1-2.7,3.573,3.573,0,0,0-2.683-1.017,4.867,4.867,0,0,0-1.686.261,4.159,4.159,0,0,0-1.157.622c-.293.244-.688.588-1.166,1.034h-.076v-1.572c0-.311-.134-.471-.4-.471h-.067q-.151.025-.579.151a13.837,13.837,0,0,1-2.659.647.413.413,0,0,0-.3.16.474.474,0,0,0-.1.286c0,.219.05.353.151.412a.9.9,0,0,0,.444.092,1.461,1.461,0,0,1,.923.219.8.8,0,0,1,.31.53,8.006,8.006,0,0,1,.042.942v5.717a8.176,8.176,0,0,1-.042.95.764.764,0,0,1-.31.521,1.456,1.456,0,0,1-.923.227,1.085,1.085,0,0,0-.444.067c-.084.034-.134.168-.151.387A.57.57,0,0,0-1611.124-143.012Zm19.574-.4a2.832,2.832,0,0,0,2.1.891,6.044,6.044,0,0,0,1.5-.16,4.463,4.463,0,0,0,1.359-.639.307.307,0,0,0,.151-.219.282.282,0,0,0-.025-.126,1.98,1.98,0,0,0-.2-.361.315.315,0,0,0-.268-.135,1.563,1.563,0,0,0-.4.118,3.2,3.2,0,0,1-1.367.277,1.191,1.191,0,0,1-1.107-.546,2.582,2.582,0,0,1-.336-1.379v-7.583l2.784.076c.084,0,.151-.076.21-.235a1.465,1.465,0,0,0,.092-.513q0-.479-.327-.479h-.05l-2.91.177.176-2.842a.277.277,0,0,0-.176-.261.787.787,0,0,0-.352-.092.523.523,0,0,0-.545.328c-.218.631-.4,1.1-.545,1.412a2.553,2.553,0,0,1-.713.849,3.234,3.234,0,0,1-1.359.555.341.341,0,0,0-.26.193.777.777,0,0,0-.084.387.53.53,0,0,0,.1.311.274.274,0,0,0,.243.135l1.442-.05v7.339A3.577,3.577,0,0,0-1591.55-143.407Zm11.305-8.138,3.187,8.861h1.468l2.466-8.163,3.162,8.163h1.468l2.768-9.214a1.864,1.864,0,0,1,.73-1.16,3.084,3.084,0,0,1,1.535-.311.456.456,0,0,0,.293-.076.535.535,0,0,0,.126-.37.607.607,0,0,0-.1-.336.293.293,0,0,0-.268-.168c-.981.05-1.677.076-2.1.076-.679,0-1.493-.025-2.432-.076a.293.293,0,0,0-.268.168.667.667,0,0,0-.084.336.6.6,0,0,0,.109.37.445.445,0,0,0,.285.076h.151a2.113,2.113,0,0,1,.8.109.471.471,0,0,1,.226.462,2.154,2.154,0,0,1-.075.5l-.444,1.774c-.05.16-.21.8-.478,1.908s-.537,2.093-.822,2.951h-.075l-3.405-8.583h-1.2q-1.636,6.192-2.415,8.583h-.076l-2.289-6.456a3.786,3.786,0,0,0-1.443-1.791,4.325,4.325,0,0,0-2.39-.437c-.05,0-.151.008-.31.017a1.1,1.1,0,0,0-.4.084c-.1.05-.159.177-.159.378a.823.823,0,0,0,.05.345q.05.1.252.126a1.372,1.372,0,0,1,.268.05,1.9,1.9,0,0,1,1.1.462A4.434,4.434,0,0,1-1580.245-151.545Zm20.84,8.062a3.43,3.43,0,0,0,2.415.849,5.2,5.2,0,0,0,2.323-.53,3.492,3.492,0,0,0,1.61-1.5,2.028,2.028,0,0,0,.822,1.471,2.645,2.645,0,0,0,1.669.555,3.173,3.173,0,0,0,.906-.143c.31-.092.461-.235.461-.437a.425.425,0,0,0-.092-.319.414.414,0,0,0-.285-.076,1.043,1.043,0,0,1-.964-.479,1.993,1.993,0,0,1-.327-.992V-150.9a3.065,3.065,0,0,0-1.283-2.867,6.31,6.31,0,0,0-3.321-.773,5.774,5.774,0,0,0-2.8.622,2.035,2.035,0,0,0-1.157,1.917,2.02,2.02,0,0,0,.436,1.3,1.426,1.426,0,0,0,1.182.546,1.191,1.191,0,0,0,.755-.235c.21-.16.31-.286.31-.387,0-.017-.067-.084-.21-.2a2,2,0,0,1-.394-.437,1.1,1.1,0,0,1-.193-.656,1.567,1.567,0,0,1,.579-1.278,2.057,2.057,0,0,1,1.342-.471,2.613,2.613,0,0,1,1.954.631,2.631,2.631,0,0,1,.612,1.866v1.967a35.964,35.964,0,0,0-3.74.362,5.529,5.529,0,0,0-2.483,1.026,2.74,2.74,0,0,0-1.048,2.354A2.792,2.792,0,0,0-1559.4-143.483Zm4.78-.925a3.11,3.11,0,0,1-1.568.42c-1.082,0-1.619-.563-1.619-1.7a2.269,2.269,0,0,1,1.065-2.093,9.009,9.009,0,0,1,3.69-.849v1.421a3.21,3.21,0,0,1-.428,1.639A3.149,3.149,0,0,1-1554.624-144.408Zm-4.026-12.8a1.494,1.494,0,0,0,1.082.446,1.447,1.447,0,0,0,1.09-.446,1.485,1.485,0,0,0,.436-1.051,1.433,1.433,0,0,0-.428-1.068,1.445,1.445,0,0,0-1.073-.429,1.542,1.542,0,0,0-1.115.429,1.393,1.393,0,0,0-.453,1.068A1.444,1.444,0,0,0-1558.65-157.211Zm4.311,0a1.48,1.48,0,0,0,1.082.446,1.441,1.441,0,0,0,1.082-.446,1.451,1.451,0,0,0,.436-1.051,1.46,1.46,0,0,0-.419-1.068,1.458,1.458,0,0,0-1.073-.429,1.576,1.576,0,0,0-1.124.429,1.416,1.416,0,0,0-.444,1.068A1.412,1.412,0,0,0-1554.339-157.211Zm10.315,13.88a6.628,6.628,0,0,0,3.237.7,5.812,5.812,0,0,0,2.34-.462,3.876,3.876,0,0,0,1.644-1.3,3.087,3.087,0,0,0,.6-1.858,2.733,2.733,0,0,0-.428-1.606,3.084,3.084,0,0,0-1.182-.975,16.977,16.977,0,0,0-2.072-.79c-.864-.277-1.493-.5-1.9-.673a2.056,2.056,0,0,1-.889-.656,1.85,1.85,0,0,1-.3-1.11,1.337,1.337,0,0,1,.713-1.211,3.051,3.051,0,0,1,1.652-.437,2.761,2.761,0,0,1,1.468.37,1.275,1.275,0,0,1,.671,1.051.965.965,0,0,1-.159.563,2.435,2.435,0,0,1-.361.412c-.134.109-.2.177-.2.193,0,.084.109.2.31.353a1.182,1.182,0,0,0,.713.227,1.363,1.363,0,0,0,1.082-.479,1.664,1.664,0,0,0,.411-1.143,1.93,1.93,0,0,0-1.082-1.749,4.983,4.983,0,0,0-2.549-.622,6.289,6.289,0,0,0-2.181.37,3.9,3.9,0,0,0-1.677,1.127,2.619,2.619,0,0,0-.654,1.791,2.832,2.832,0,0,0,.554,1.824,3.452,3.452,0,0,0,1.317,1.051,14.639,14.639,0,0,0,1.987.7c.671.2,1.183.37,1.56.521a2.469,2.469,0,0,1,.931.631,1.412,1.412,0,0,1,.377,1.017,1.714,1.714,0,0,1-.663,1.438,2.886,2.886,0,0,1-1.828.513,3.736,3.736,0,0,1-1.979-.437,1.361,1.361,0,0,1-.688-1.185,1.206,1.206,0,0,1,.285-.849,2.516,2.516,0,0,0,.294-.328c0-.084-.109-.193-.31-.345a1.182,1.182,0,0,0-.713-.227,1.52,1.52,0,0,0-1.132.446,1.621,1.621,0,0,0-.436,1.177A2.173,2.173,0,0,0-1544.024-143.331Zm13.519,0a6.627,6.627,0,0,0,3.237.7,5.811,5.811,0,0,0,2.34-.462,3.877,3.877,0,0,0,1.644-1.3,3.087,3.087,0,0,0,.6-1.858,2.676,2.676,0,0,0-.436-1.606,2.965,2.965,0,0,0-1.182-.975,16.227,16.227,0,0,0-2.063-.79c-.864-.277-1.493-.5-1.9-.673a2.054,2.054,0,0,1-.889-.656,1.849,1.849,0,0,1-.3-1.11,1.337,1.337,0,0,1,.713-1.211,3.051,3.051,0,0,1,1.652-.437,2.762,2.762,0,0,1,1.468.37,1.276,1.276,0,0,1,.671,1.051.965.965,0,0,1-.16.563,2.445,2.445,0,0,1-.361.412c-.134.109-.2.177-.2.193,0,.084.109.2.31.353a1.182,1.182,0,0,0,.713.227,1.363,1.363,0,0,0,1.082-.479,1.665,1.665,0,0,0,.411-1.143,1.93,1.93,0,0,0-1.082-1.749,4.984,4.984,0,0,0-2.549-.622,6.287,6.287,0,0,0-2.18.37,3.984,3.984,0,0,0-1.686,1.127,2.654,2.654,0,0,0-.646,1.791,2.832,2.832,0,0,0,.554,1.824,3.453,3.453,0,0,0,1.317,1.051,14.651,14.651,0,0,0,1.987.7c.671.2,1.183.37,1.56.521a2.54,2.54,0,0,1,.931.631,1.413,1.413,0,0,1,.377,1.017,1.714,1.714,0,0,1-.663,1.438,2.885,2.885,0,0,1-1.828.513,3.737,3.737,0,0,1-1.979-.437,1.361,1.361,0,0,1-.688-1.185,1.207,1.207,0,0,1,.285-.849,2.524,2.524,0,0,0,.294-.328c0-.084-.109-.193-.319-.345a1.14,1.14,0,0,0-.7-.227,1.507,1.507,0,0,0-1.132.446,1.621,1.621,0,0,0-.436,1.177A2.174,2.174,0,0,0-1530.5-143.331Zm15-.1a6,6,0,0,0,3.17.8,5.261,5.261,0,0,0,2.675-.689,5.519,5.519,0,0,0,1.954-1.934.415.415,0,0,0,.05-.227.476.476,0,0,0-.243-.446.468.468,0,0,0-.3-.1.363.363,0,0,0-.252.126,4.46,4.46,0,0,1-1.417,1.555,3.337,3.337,0,0,1-1.811.462,3.383,3.383,0,0,1-2.977-1.362,6.256,6.256,0,0,1-.965-3.674h6.055a2.293,2.293,0,0,0,1.292-.3,1.252,1.252,0,0,0,.453-1.127,4.631,4.631,0,0,0-1.375-3.052,4.748,4.748,0,0,0-3.405-1.135,5.087,5.087,0,0,0-2.918.849,5.683,5.683,0,0,0-1.954,2.2,6.26,6.26,0,0,0-.68,2.833,6.729,6.729,0,0,0,.671,3.043A5.163,5.163,0,0,0-1515.5-143.432Zm3.942-6.44h-4.059a4.742,4.742,0,0,1,.923-2.783,2.6,2.6,0,0,1,2.1-1.009,2.078,2.078,0,0,1,1.761.8,3.031,3.031,0,0,1,.629,1.942C-1510.259-150.225-1510.712-149.872-1511.559-149.872Zm8.3,6.86a.354.354,0,0,0,.294.151c.973-.05,1.837-.076,2.583-.076q1.17,0,2.617.076a.339.339,0,0,0,.3-.151.683.683,0,0,0,.092-.345c-.017-.2-.05-.328-.117-.378a.5.5,0,0,0-.3-.076h-.151a1.471,1.471,0,0,1-.922-.227.844.844,0,0,1-.319-.521,6.362,6.362,0,0,1-.05-.95V-151.6a6.992,6.992,0,0,1,1.266-1.034,2.138,2.138,0,0,1,1.073-.412.815.815,0,0,1,.637.269,1.116,1.116,0,0,1,.235.723.911.911,0,0,1-.226.614,3.2,3.2,0,0,0-.252.311c.017.067.117.151.285.252a1.2,1.2,0,0,0,.612.151,1.394,1.394,0,0,0,1.174-.555,2.007,2.007,0,0,0,.419-1.244,2.205,2.205,0,0,0-.486-1.412,1.577,1.577,0,0,0-1.308-.605,3.4,3.4,0,0,0-1.619.5,8.6,8.6,0,0,0-1.761,1.387h-.075v-1.547c0-.311-.134-.471-.4-.471h-.076c-.092.017-.285.067-.57.151a13.844,13.844,0,0,1-2.659.647.414.414,0,0,0-.3.16.476.476,0,0,0-.1.286c0,.219.05.353.151.412a.9.9,0,0,0,.445.092,1.459,1.459,0,0,1,.922.219.8.8,0,0,1,.31.53,8.034,8.034,0,0,1,.042.942v5.717a8.2,8.2,0,0,1-.042.95.764.764,0,0,1-.31.521,1.454,1.454,0,0,1-.922.227,1.086,1.086,0,0,0-.445.067c-.084.034-.134.168-.151.387A.563.563,0,0,0-1503.257-143.012Zm15.423-.647a3.6,3.6,0,0,0,2.692,1.026,4.776,4.776,0,0,0,1.677-.269,3.747,3.747,0,0,0,1.157-.622c.3-.235.7-.588,1.174-1.034h.05v1.4a2.015,2.015,0,0,0,.025.387c.017.076.084.118.2.118l4.009-.277c.277-.05.419-.193.419-.42,0-.319-.143-.479-.419-.479-1.317,0-1.971-.488-1.971-1.471v-8.634c0-.319-.134-.479-.394-.479h-.075a2.689,2.689,0,0,0-.579.151,12.206,12.206,0,0,1-2.684.647.421.421,0,0,0-.3.168.475.475,0,0,0-.1.286c0,.219.05.353.151.412a.909.909,0,0,0,.445.084,1.438,1.438,0,0,1,.922.227.8.8,0,0,1,.31.521,8.324,8.324,0,0,1,.042.95v5.246a3.153,3.153,0,0,1-1.1,1.143,3.341,3.341,0,0,1-1.987.572,2.519,2.519,0,0,1-1.669-.605,2.18,2.18,0,0,1-.721-1.765v-7.558q0-.479-.4-.479h-.075a2.763,2.763,0,0,0-.57.151,12.205,12.205,0,0,1-2.684.647.421.421,0,0,0-.3.168.476.476,0,0,0-.1.286c0,.219.05.353.151.412a.909.909,0,0,0,.444.084,1.454,1.454,0,0,1,.922.227.8.8,0,0,1,.31.521,8.34,8.34,0,0,1,.042.95v4.615A3.7,3.7,0,0,0-1487.834-143.659Zm14.979.647a.339.339,0,0,0,.285.151q1.472-.076,2.591-.076,1.17,0,2.617.076a.333.333,0,0,0,.293-.151.614.614,0,0,0,.1-.345.542.542,0,0,0-.126-.378.489.489,0,0,0-.293-.076h-.151a1.455,1.455,0,0,1-.922-.227.822.822,0,0,1-.327-.521,6.333,6.333,0,0,1-.05-.95v-5.935a3.235,3.235,0,0,1,1.124-1.16,3.362,3.362,0,0,1,1.971-.563,2.463,2.463,0,0,1,1.661.614,2.157,2.157,0,0,1,.73,1.757v5.288a6.362,6.362,0,0,1-.05.95.822.822,0,0,1-.327.521,1.454,1.454,0,0,1-.922.227.987.987,0,0,0-.436.067c-.075.034-.117.168-.134.387a.561.561,0,0,0,.109.345.35.35,0,0,0,.285.151q1.472-.076,2.591-.076,1.17,0,2.617.076a.34.34,0,0,0,.285-.151.563.563,0,0,0,.109-.345q-.025-.3-.126-.378a.456.456,0,0,0-.294-.076h-.151a1.471,1.471,0,0,1-.923-.227.809.809,0,0,1-.319-.521,6.35,6.35,0,0,1-.05-.95v-5.313a3.707,3.707,0,0,0-1-2.7,3.579,3.579,0,0,0-2.692-1.017,4.783,4.783,0,0,0-1.677.261,4.159,4.159,0,0,0-1.157.622c-.3.244-.688.588-1.174,1.034h-.076v-1.572c0-.311-.126-.471-.394-.471h-.075a5.5,5.5,0,0,0-.57.151,13.788,13.788,0,0,1-2.667.647.381.381,0,0,0-.294.16.475.475,0,0,0-.1.286c0,.219.05.353.142.412a.914.914,0,0,0,.453.092,1.476,1.476,0,0,1,.922.219.834.834,0,0,1,.31.53,8.458,8.458,0,0,1,.034.942v5.717a8.634,8.634,0,0,1-.034.95.8.8,0,0,1-.31.521,1.471,1.471,0,0,1-.922.227,1.1,1.1,0,0,0-.453.067c-.075.034-.126.168-.142.387A.561.561,0,0,0-1472.855-143.012Zm17.142,2.522q0,2.989,5.25,2.993a9.234,9.234,0,0,0,4.856-1.11,3.417,3.417,0,0,0,1.82-3.06,2.461,2.461,0,0,0-1.157-2.228,7.815,7.815,0,0,0-3.774-.841l-3.413-.126a2.279,2.279,0,0,1-1.115-.269.794.794,0,0,1-.327-.7.838.838,0,0,1,.587-.824,5.081,5.081,0,0,1,1.879-.252h1.1a5.544,5.544,0,0,0,2.239-.471,4.286,4.286,0,0,0,1.728-1.362,3.287,3.287,0,0,0,.663-2.034,3.3,3.3,0,0,0-.3-1.32,3.52,3.52,0,0,0-.721-1.127v-.05l2.466.1c.1,0,.185-.1.26-.3a1.776,1.776,0,0,0,.117-.647c0-.4-.143-.6-.428-.6h-.05l-3.413.647a6.111,6.111,0,0,0-2.759-.5,5.885,5.885,0,0,0-2.491.5,4.1,4.1,0,0,0-1.7,1.37,3.321,3.321,0,0,0-.612,1.95,3.337,3.337,0,0,0,.6,1.934,4.436,4.436,0,0,0,2.072,1.438,2.707,2.707,0,0,0-1.954.656,2.187,2.187,0,0,0-.688,1.639,1.714,1.714,0,0,0,.537,1.4,3.136,3.136,0,0,0,1.5.622,20.965,20.965,0,0,0,2.516.177,22.611,22.611,0,0,1,2.34.135,3.379,3.379,0,0,1,1.493.513,1.345,1.345,0,0,1,.6,1.2,2.192,2.192,0,0,1-1.023,1.959,5.39,5.39,0,0,1-2.91.656c-2.2,0-3.287-.639-3.287-1.917a1.578,1.578,0,0,1,.159-.74,2.081,2.081,0,0,1,.377-.521,1.646,1.646,0,0,0,.21-.235.568.568,0,0,0-.184-.294,1.959,1.959,0,0,0-.487-.319,1.545,1.545,0,0,0-.654-.134,1.706,1.706,0,0,0-1.375.622A2.166,2.166,0,0,0-1455.713-140.49Zm7.38-7.978a2.322,2.322,0,0,1-1.879.841,2.359,2.359,0,0,1-1.87-.849,3.516,3.516,0,0,1-.721-2.346,3.12,3.12,0,0,1,.721-2.169,2.369,2.369,0,0,1,1.845-.8,2.38,2.38,0,0,1,1.879.824,3.182,3.182,0,0,1,.738,2.194A3.453,3.453,0,0,1-1448.333-148.468Zm9.645,5.137a6.627,6.627,0,0,0,3.237.7,5.811,5.811,0,0,0,2.34-.462,3.877,3.877,0,0,0,1.644-1.3,3.087,3.087,0,0,0,.6-1.858,2.734,2.734,0,0,0-.428-1.606,3.086,3.086,0,0,0-1.182-.975,16.953,16.953,0,0,0-2.072-.79c-.864-.277-1.493-.5-1.887-.673a2.034,2.034,0,0,1-.9-.656,1.849,1.849,0,0,1-.3-1.11,1.337,1.337,0,0,1,.713-1.211,3.052,3.052,0,0,1,1.652-.437,2.762,2.762,0,0,1,1.468.37,1.276,1.276,0,0,1,.671,1.051.966.966,0,0,1-.159.563,2.441,2.441,0,0,1-.361.412c-.134.109-.2.177-.2.193,0,.084.109.2.31.353a1.182,1.182,0,0,0,.713.227,1.363,1.363,0,0,0,1.082-.479,1.665,1.665,0,0,0,.411-1.143,1.93,1.93,0,0,0-1.082-1.749,4.984,4.984,0,0,0-2.55-.622,6.287,6.287,0,0,0-2.18.37,3.9,3.9,0,0,0-1.677,1.127,2.619,2.619,0,0,0-.654,1.791,2.832,2.832,0,0,0,.553,1.824,3.452,3.452,0,0,0,1.317,1.051,14.821,14.821,0,0,0,2,.7c.662.2,1.182.37,1.552.521a2.472,2.472,0,0,1,.931.631,1.413,1.413,0,0,1,.377,1.017,1.713,1.713,0,0,1-.663,1.438,2.885,2.885,0,0,1-1.828.513,3.738,3.738,0,0,1-1.979-.437,1.361,1.361,0,0,1-.687-1.185,1.172,1.172,0,0,1,.293-.849,2.818,2.818,0,0,0,.285-.328c0-.084-.109-.193-.31-.345a1.182,1.182,0,0,0-.713-.227,1.534,1.534,0,0,0-1.132.446,1.622,1.622,0,0,0-.436,1.177A2.174,2.174,0,0,0-1438.689-143.331Zm14.618-.076a2.8,2.8,0,0,0,2.088.891,6.114,6.114,0,0,0,1.51-.16,4.655,4.655,0,0,0,1.359-.639.292.292,0,0,0,.142-.219.515.515,0,0,0-.017-.126,1.981,1.981,0,0,0-.2-.361.32.32,0,0,0-.277-.135,1.455,1.455,0,0,0-.394.118,3.241,3.241,0,0,1-1.375.277,1.209,1.209,0,0,1-1.107-.546,2.661,2.661,0,0,1-.335-1.379v-7.583l2.793.076c.084,0,.151-.076.21-.235a1.459,1.459,0,0,0,.084-.513c0-.319-.109-.479-.319-.479h-.05l-2.919.177.176-2.842a.277.277,0,0,0-.176-.261.727.727,0,0,0-.344-.092.51.51,0,0,0-.545.328,13.788,13.788,0,0,1-.553,1.412,2.623,2.623,0,0,1-.7.849,3.282,3.282,0,0,1-1.359.555.341.341,0,0,0-.26.193.774.774,0,0,0-.093.387.529.529,0,0,0,.1.311.3.3,0,0,0,.252.135l1.443-.05v7.339A3.576,3.576,0,0,0-1424.071-143.407Zm12.311-.025a6,6,0,0,0,3.17.8,5.26,5.26,0,0,0,2.675-.689,5.609,5.609,0,0,0,1.963-1.934.518.518,0,0,0,.042-.227.476.476,0,0,0-.243-.446.468.468,0,0,0-.3-.1.362.362,0,0,0-.252.126,4.462,4.462,0,0,1-1.417,1.555,3.336,3.336,0,0,1-1.811.462,3.383,3.383,0,0,1-2.977-1.362,6.256,6.256,0,0,1-.956-3.674h6.047a2.292,2.292,0,0,0,1.292-.3,1.252,1.252,0,0,0,.453-1.127,4.63,4.63,0,0,0-1.375-3.052,4.748,4.748,0,0,0-3.4-1.135,5.087,5.087,0,0,0-2.918.849,5.683,5.683,0,0,0-1.954,2.2,6.263,6.263,0,0,0-.679,2.833,6.726,6.726,0,0,0,.671,3.043A5.162,5.162,0,0,0-1411.76-143.432Zm3.942-6.44h-4.051a4.68,4.68,0,0,1,.914-2.783,2.6,2.6,0,0,1,2.1-1.009,2.078,2.078,0,0,1,1.761.8,3.031,3.031,0,0,1,.629,1.942C-1406.518-150.225-1406.971-149.872-1407.818-149.872Zm9.837,5.616a5.078,5.078,0,0,0,3.984,1.623,5.024,5.024,0,0,0,2.466-.689,6.071,6.071,0,0,0,2.038-1.858.431.431,0,0,0,.075-.2.487.487,0,0,0-.075-.252.409.409,0,0,0-.193-.168.624.624,0,0,0-.277-.076.27.27,0,0,0-.252.126,4.334,4.334,0,0,1-1.384,1.4,3.417,3.417,0,0,1-1.828.462,2.943,2.943,0,0,1-2.516-1.345,5.885,5.885,0,0,1-.939-3.447,8.13,8.13,0,0,1,.679-3.531,2.62,2.62,0,0,1,2.6-1.412,2.243,2.243,0,0,1,1.359.4,1.339,1.339,0,0,1,.562,1.169,1.182,1.182,0,0,1-.184.664,2.384,2.384,0,0,1-.411.488,1.16,1.16,0,0,0-.226.227c0,.118.109.252.335.42a1.321,1.321,0,0,0,.814.252,1.486,1.486,0,0,0,1.233-.589,2.148,2.148,0,0,0,.453-1.362,2.071,2.071,0,0,0-1.157-1.992,5.853,5.853,0,0,0-2.751-.6,6.163,6.163,0,0,0-2.91.807,5.781,5.781,0,0,0-2.105,2.093,6.3,6.3,0,0,0-.83,3.035A6.292,6.292,0,0,0-1397.98-144.256Zm12.521,1.244a.339.339,0,0,0,.3.151c.981-.05,1.837-.076,2.592-.076.78,0,1.644.025,2.608.076a.315.315,0,0,0,.277-.151.615.615,0,0,0,.1-.345.6.6,0,0,0-.117-.378.479.479,0,0,0-.31-.076h-.151a1.428,1.428,0,0,1-.914-.227.765.765,0,0,1-.31-.521,8.239,8.239,0,0,1-.042-.95v-5.935a3.2,3.2,0,0,1,1.107-1.152,3.43,3.43,0,0,1,1.979-.572,2.463,2.463,0,0,1,1.66.614,2.193,2.193,0,0,1,.7,1.757v5.288a8.734,8.734,0,0,1-.034.967.8.8,0,0,1-.31.5,1.471,1.471,0,0,1-.922.227.985.985,0,0,0-.436.067c-.076.034-.118.168-.134.387a.607.607,0,0,0,.092.345.338.338,0,0,0,.3.151q1.422-.076,2.592-.076c.763,0,1.635.025,2.608.076a.315.315,0,0,0,.277-.151.614.614,0,0,0,.1-.345.606.606,0,0,0-.109-.378.494.494,0,0,0-.31-.076h-.151a1.455,1.455,0,0,1-.922-.227.765.765,0,0,1-.31-.521,8.183,8.183,0,0,1-.042-.95v-5.313a3.7,3.7,0,0,0-.99-2.7,3.593,3.593,0,0,0-2.692-1.017,4.783,4.783,0,0,0-1.677.261,3.929,3.929,0,0,0-1.157.622c-.3.244-.7.588-1.174,1.034h-.05v-8.037a.418.418,0,0,0-.47-.471,2.256,2.256,0,0,0-.646.177c-.067.017-.319.092-.738.235a11.333,11.333,0,0,1-1.879.387.414.414,0,0,0-.3.16.476.476,0,0,0-.1.286c0,.219.05.353.151.412a.913.913,0,0,0,.453.092,1.488,1.488,0,0,1,.914.219.768.768,0,0,1,.31.53,8.211,8.211,0,0,1,.042.95v12.173a6.329,6.329,0,0,1-.05.95.822.822,0,0,1-.327.521,1.429,1.429,0,0,1-.914.227.985.985,0,0,0-.436.067c-.076.034-.126.168-.143.387A.616.616,0,0,0-1385.46-143.012Zm17.293,0a.34.34,0,0,0,.285.151q1.472-.076,2.591-.076c.78,0,1.652.025,2.608.076a.338.338,0,0,0,.3-.151.614.614,0,0,0,.1-.345q-.025-.3-.126-.378a.5.5,0,0,0-.3-.076h-.143a1.454,1.454,0,0,1-.922-.227.822.822,0,0,1-.327-.521,6.354,6.354,0,0,1-.05-.95v-5.935a3.235,3.235,0,0,1,1.124-1.16,3.353,3.353,0,0,1,1.963-.563,2.469,2.469,0,0,1,1.669.614,2.151,2.151,0,0,1,.721,1.757v5.288a6.362,6.362,0,0,1-.05.95.809.809,0,0,1-.319.521,1.471,1.471,0,0,1-.922.227.986.986,0,0,0-.436.067c-.075.034-.117.168-.134.387a.562.562,0,0,0,.109.345.339.339,0,0,0,.285.151q1.472-.076,2.591-.076,1.17,0,2.616.076a.34.34,0,0,0,.285-.151.563.563,0,0,0,.109-.345q-.025-.3-.126-.378a.473.473,0,0,0-.294-.076h-.151a1.455,1.455,0,0,1-.922-.227.822.822,0,0,1-.327-.521,6.636,6.636,0,0,1-.042-.95v-5.313a3.708,3.708,0,0,0-1-2.7,3.58,3.58,0,0,0-2.692-1.017,4.785,4.785,0,0,0-1.677.261,3.933,3.933,0,0,0-1.157.622c-.3.244-.687.588-1.174,1.034h-.075v-1.572c0-.311-.134-.471-.394-.471h-.076a5.53,5.53,0,0,0-.57.151,13.79,13.79,0,0,1-2.667.647.413.413,0,0,0-.3.16.474.474,0,0,0-.1.286c0,.219.05.353.151.412a.913.913,0,0,0,.453.092,1.475,1.475,0,0,1,.922.219.834.834,0,0,1,.31.53,8.5,8.5,0,0,1,.034.942v5.717a8.673,8.673,0,0,1-.034.95.8.8,0,0,1-.31.521,1.47,1.47,0,0,1-.922.227,1.1,1.1,0,0,0-.453.067c-.084.034-.134.168-.151.387A.571.571,0,0,0-1368.167-143.012Zm17.4,0a.34.34,0,0,0,.285.151q1.472-.076,2.591-.076c.78,0,1.652.025,2.608.076a.338.338,0,0,0,.3-.151.614.614,0,0,0,.1-.345.544.544,0,0,0-.126-.378.5.5,0,0,0-.3-.076h-.143a1.454,1.454,0,0,1-.922-.227.821.821,0,0,1-.327-.521,6.35,6.35,0,0,1-.05-.95v-8.684c0-.311-.134-.471-.394-.471h-.075a2.516,2.516,0,0,0-.57.151,13.19,13.19,0,0,1-2.692.647.413.413,0,0,0-.3.16.464.464,0,0,0-.092.286c0,.219.042.353.142.412a.913.913,0,0,0,.453.092,1.476,1.476,0,0,1,.922.219.834.834,0,0,1,.31.53,8.527,8.527,0,0,1,.034.942v5.717a8.7,8.7,0,0,1-.034.95.8.8,0,0,1-.31.521,1.471,1.471,0,0,1-.922.227,1.1,1.1,0,0,0-.453.067c-.084.034-.126.168-.142.387A.563.563,0,0,0-1350.765-143.012Zm1.577-14.863a1.668,1.668,0,0,0,1.174.437,1.7,1.7,0,0,0,1.166-.42,1.324,1.324,0,0,0,.478-1.026,1.584,1.584,0,0,0-.4-1.11,1.3,1.3,0,0,0-1.015-.437,2.082,2.082,0,0,0-1.3.446,1.315,1.315,0,0,0-.57,1.026A1.415,1.415,0,0,0-1349.188-157.875Zm8.017,14.863a.338.338,0,0,0,.3.151q1.471-.076,2.591-.076c.78,0,1.652.025,2.608.076a.329.329,0,0,0,.285-.151.57.57,0,0,0,.117-.345.543.543,0,0,0-.125-.378.554.554,0,0,0-.327-.076h-.143a1.456,1.456,0,0,1-.923-.227.765.765,0,0,1-.31-.521,8.232,8.232,0,0,1-.042-.95v-3.018a1.777,1.777,0,0,1,1.468.7c-.033-.034.235.286.8.95,1.811,2.11,2.969,3.43,3.464,3.943,1.359,0,2.214.008,2.566.034s.6.042.746.042c.26,0,.394-.168.394-.5a.5.5,0,0,0-.084-.328.351.351,0,0,0-.252-.109c-.109-.008-.176-.017-.21-.017a2.079,2.079,0,0,1-1.082-.37,12.335,12.335,0,0,1-1.333-1.278c-.017-.034-.344-.4-.973-1.093q-2.088-2.32-2.734-3.195l2.088-2.152a6.12,6.12,0,0,1,1.392-1.143,3.147,3.147,0,0,1,1.518-.328.5.5,0,0,0,.3-.076.533.533,0,0,0,.126-.37.577.577,0,0,0-.117-.353.329.329,0,0,0-.285-.151l-.57.025c-.495.034-.864.05-1.1.05-1.074,0-1.988-.025-2.734-.076a.339.339,0,0,0-.285.151.576.576,0,0,0-.117.353c.017.261.117.412.3.446.763-.05,1.149.05,1.149.3a.725.725,0,0,1-.252.437,2.935,2.935,0,0,0-.3.336l-2.088,2.144a3.473,3.473,0,0,1-1.795.925v-11.408c0-.311-.134-.471-.394-.471h-.075a2.519,2.519,0,0,0-.57.151,13.336,13.336,0,0,1-2.692.647.413.413,0,0,0-.3.16.475.475,0,0,0-.1.286c0,.219.05.353.151.412a.912.912,0,0,0,.453.092,1.488,1.488,0,0,1,.914.219.812.812,0,0,1,.319.53,8.645,8.645,0,0,1,.033.95v12.148a6.346,6.346,0,0,1-.05.95.844.844,0,0,1-.318.521,1.472,1.472,0,0,1-.923.227.986.986,0,0,0-.436.067c-.075.034-.126.168-.142.387A.615.615,0,0,0-1341.17-143.012Z" transform="translate(1715.159 161.129)" fill="#8c43cf"/>
      </g>
      <rect id="SvgjsRect63666" width="387.457" height="2.773" rx="1.386" transform="translate(0 247.227)" fill="#8c43cf"/>
    </g>
  </g>
</svg>
